<svg id="visual" viewBox="0 0 1920 1080" width="1920" height="1080" xmlns="http://www.w3.org/2000/svg" xmlns:xlink="http://www.w3.org/1999/xlink" version="1.1"><path d="M0 701L45.7 709C91.3 717 182.7 733 274.2 726.5C365.7 720 457.3 691 548.8 688.3C640.3 685.7 731.7 709.3 823 723.7C914.3 738 1005.7 743 1097 729.2C1188.3 715.3 1279.7 682.7 1371.2 666.7C1462.7 650.7 1554.3 651.3 1645.8 671C1737.3 690.7 1828.7 729.3 1874.3 748.7L1920 768L1920 1081L1874.3 1081C1828.7 1081 1737.3 1081 1645.8 1081C1554.3 1081 1462.7 1081 1371.2 1081C1279.7 1081 1188.3 1081 1097 1081C1005.7 1081 914.3 1081 823 1081C731.7 1081 640.3 1081 548.8 1081C457.3 1081 365.7 1081 274.2 1081C182.7 1081 91.3 1081 45.7 1081L0 1081Z" fill="#2884f6"></path><path d="M0 772L45.7 774.2C91.3 776.3 182.7 780.7 274.2 784.2C365.7 787.7 457.3 790.3 548.8 802C640.3 813.7 731.7 834.3 823 824.7C914.3 815 1005.7 775 1097 774.3C1188.3 773.7 1279.7 812.3 1371.2 825.8C1462.7 839.3 1554.3 827.7 1645.8 818.2C1737.3 808.7 1828.7 801.3 1874.3 797.7L1920 794L1920 1081L1874.3 1081C1828.7 1081 1737.3 1081 1645.8 1081C1554.3 1081 1462.7 1081 1371.2 1081C1279.7 1081 1188.3 1081 1097 1081C1005.7 1081 914.3 1081 823 1081C731.7 1081 640.3 1081 548.8 1081C457.3 1081 365.7 1081 274.2 1081C182.7 1081 91.3 1081 45.7 1081L0 1081Z" fill="#2170ee"></path><path d="M0 830L45.7 840.7C91.3 851.3 182.7 872.7 274.2 870.7C365.7 868.7 457.3 843.3 548.8 826.5C640.3 809.7 731.7 801.3 823 818.5C914.3 835.7 1005.7 878.3 1097 884.8C1188.3 891.3 1279.7 861.7 1371.2 840.7C1462.7 819.7 1554.3 807.3 1645.8 813.5C1737.3 819.7 1828.7 844.3 1874.3 856.7L1920 869L1920 1081L1874.3 1081C1828.7 1081 1737.3 1081 1645.8 1081C1554.3 1081 1462.7 1081 1371.2 1081C1279.7 1081 1188.3 1081 1097 1081C1005.7 1081 914.3 1081 823 1081C731.7 1081 640.3 1081 548.8 1081C457.3 1081 365.7 1081 274.2 1081C182.7 1081 91.3 1081 45.7 1081L0 1081Z" fill="#295ae4"></path><path d="M0 913L45.7 919.5C91.3 926 182.7 939 274.2 931.8C365.7 924.7 457.3 897.3 548.8 891.8C640.3 886.3 731.7 902.7 823 920.3C914.3 938 1005.7 957 1097 962.7C1188.3 968.3 1279.7 960.7 1371.2 945C1462.7 929.3 1554.3 905.7 1645.8 902C1737.3 898.3 1828.7 914.7 1874.3 922.8L1920 931L1920 1081L1874.3 1081C1828.7 1081 1737.3 1081 1645.8 1081C1554.3 1081 1462.7 1081 1371.2 1081C1279.7 1081 1188.3 1081 1097 1081C1005.7 1081 914.3 1081 823 1081C731.7 1081 640.3 1081 548.8 1081C457.3 1081 365.7 1081 274.2 1081C182.7 1081 91.3 1081 45.7 1081L0 1081Z" fill="#3842d7"></path><path d="M0 978L45.7 978.8C91.3 979.7 182.7 981.3 274.2 990.5C365.7 999.7 457.3 1016.3 548.8 1014.3C640.3 1012.3 731.7 991.7 823 988.2C914.3 984.7 1005.7 998.3 1097 994.8C1188.3 991.3 1279.7 970.7 1371.2 970.7C1462.7 970.7 1554.3 991.3 1645.8 1001.8C1737.3 1012.3 1828.7 1012.7 1874.3 1012.8L1920 1013L1920 1081L1874.3 1081C1828.7 1081 1737.3 1081 1645.8 1081C1554.3 1081 1462.7 1081 1371.2 1081C1279.7 1081 1188.3 1081 1097 1081C1005.7 1081 914.3 1081 823 1081C731.7 1081 640.3 1081 548.8 1081C457.3 1081 365.7 1081 274.2 1081C182.7 1081 91.3 1081 45.7 1081L0 1081Z" fill="#4624c7"></path></svg>