<svg id="visual" viewBox="0 0 900 600" width="900" height="600" xmlns="http://www.w3.org/2000/svg" xmlns:xlink="http://www.w3.org/1999/xlink" version="1.1"><path d="M0 183L21.5 183.5C43 184 86 185 128.8 191.8C171.7 198.7 214.3 211.3 257.2 219.3C300 227.3 343 230.7 385.8 224.8C428.7 219 471.3 204 514.2 194C557 184 600 179 642.8 182.7C685.7 186.3 728.3 198.7 771.2 195.2C814 191.7 857 172.3 878.5 162.7L900 153L900 0L878.5 0C857 0 814 0 771.2 0C728.3 0 685.7 0 642.8 0C600 0 557 0 514.2 0C471.3 0 428.7 0 385.8 0C343 0 300 0 257.2 0C214.3 0 171.7 0 128.8 0C86 0 43 0 21.5 0L0 0Z" fill="#181818"></path><path d="M0 174L21.5 172.3C43 170.7 86 167.3 128.8 169C171.7 170.7 214.3 177.3 257.2 174.7C300 172 343 160 385.8 149.5C428.7 139 471.3 130 514.2 126.8C557 123.7 600 126.3 642.8 137.3C685.7 148.3 728.3 167.7 771.2 172.7C814 177.7 857 168.3 878.5 163.7L900 159L900 0L878.5 0C857 0 814 0 771.2 0C728.3 0 685.7 0 642.8 0C600 0 557 0 514.2 0C471.3 0 428.7 0 385.8 0C343 0 300 0 257.2 0C214.3 0 171.7 0 128.8 0C86 0 43 0 21.5 0L0 0Z" fill="#171717"></path><path d="M0 151L21.5 141.2C43 131.3 86 111.7 128.8 105C171.7 98.3 214.3 104.7 257.2 116C300 127.3 343 143.7 385.8 148.7C428.7 153.7 471.3 147.3 514.2 135.7C557 124 600 107 642.8 109.2C685.7 111.3 728.3 132.7 771.2 136.8C814 141 857 128 878.5 121.5L900 115L900 0L878.5 0C857 0 814 0 771.2 0C728.3 0 685.7 0 642.8 0C600 0 557 0 514.2 0C471.3 0 428.7 0 385.8 0C343 0 300 0 257.2 0C214.3 0 171.7 0 128.8 0C86 0 43 0 21.5 0L0 0Z" fill="#151515"></path><path d="M0 97L21.5 98.2C43 99.3 86 101.7 128.8 103.2C171.7 104.7 214.3 105.3 257.2 102.7C300 100 343 94 385.8 95.2C428.7 96.3 471.3 104.7 514.2 107C557 109.3 600 105.7 642.8 98.8C685.7 92 728.3 82 771.2 83.5C814 85 857 98 878.5 104.5L900 111L900 0L878.5 0C857 0 814 0 771.2 0C728.3 0 685.7 0 642.8 0C600 0 557 0 514.2 0C471.3 0 428.7 0 385.8 0C343 0 300 0 257.2 0C214.3 0 171.7 0 128.8 0C86 0 43 0 21.5 0L0 0Z" fill="#141414"></path><path d="M0 46L21.5 43.8C43 41.7 86 37.3 128.8 34.5C171.7 31.7 214.3 30.3 257.2 32C300 33.7 343 38.3 385.8 45.2C428.7 52 471.3 61 514.2 59.5C557 58 600 46 642.8 45.8C685.7 45.7 728.3 57.3 771.2 57.3C814 57.3 857 45.7 878.5 39.8L900 34L900 0L878.5 0C857 0 814 0 771.2 0C728.3 0 685.7 0 642.8 0C600 0 557 0 514.2 0C471.3 0 428.7 0 385.8 0C343 0 300 0 257.2 0C214.3 0 171.7 0 128.8 0C86 0 43 0 21.5 0L0 0Z" fill="#121212"></path></svg>