<svg id="visual" viewBox="0 0 1920 1080" width="1920" height="1080" xmlns="http://www.w3.org/2000/svg" xmlns:xlink="http://www.w3.org/1999/xlink" version="1.1"><path d="M0 330L45.7 330.8C91.3 331.7 182.7 333.3 274.2 345.8C365.7 358.3 457.3 381.7 548.8 396.3C640.3 411 731.7 417 823 406.2C914.3 395.3 1005.7 367.7 1097 349.5C1188.3 331.3 1279.7 322.7 1371.2 329.5C1462.7 336.3 1554.3 358.7 1645.8 352.3C1737.3 346 1828.7 311 1874.3 293.5L1920 276L1920 0L1874.3 0C1828.7 0 1737.3 0 1645.8 0C1554.3 0 1462.7 0 1371.2 0C1279.7 0 1188.3 0 1097 0C1005.7 0 914.3 0 823 0C731.7 0 640.3 0 548.8 0C457.3 0 365.7 0 274.2 0C182.7 0 91.3 0 45.7 0L0 0Z" fill="#181818"></path><path d="M0 315L45.7 311.7C91.3 308.3 182.7 301.7 274.2 304.5C365.7 307.3 457.3 319.7 548.8 315C640.3 310.3 731.7 288.7 823 269.7C914.3 250.7 1005.7 234.3 1097 228.8C1188.3 223.3 1279.7 228.7 1371.2 248.7C1462.7 268.7 1554.3 303.3 1645.8 312.2C1737.3 321 1828.7 304 1874.3 295.5L1920 287L1920 0L1874.3 0C1828.7 0 1737.3 0 1645.8 0C1554.3 0 1462.7 0 1371.2 0C1279.7 0 1188.3 0 1097 0C1005.7 0 914.3 0 823 0C731.7 0 640.3 0 548.8 0C457.3 0 365.7 0 274.2 0C182.7 0 91.3 0 45.7 0L0 0Z" fill="#171717"></path><path d="M0 273L45.7 255.2C91.3 237.3 182.7 201.7 274.2 189.7C365.7 177.7 457.3 189.3 548.8 209.7C640.3 230 731.7 259 823 268C914.3 277 1005.7 266 1097 245.2C1188.3 224.3 1279.7 193.7 1371.2 197.5C1462.7 201.3 1554.3 239.7 1645.8 247C1737.3 254.3 1828.7 230.7 1874.3 218.8L1920 207L1920 0L1874.3 0C1828.7 0 1737.3 0 1645.8 0C1554.3 0 1462.7 0 1371.2 0C1279.7 0 1188.3 0 1097 0C1005.7 0 914.3 0 823 0C731.7 0 640.3 0 548.8 0C457.3 0 365.7 0 274.2 0C182.7 0 91.3 0 45.7 0L0 0Z" fill="#151515"></path><path d="M0 176L45.7 178C91.3 180 182.7 184 274.2 186.7C365.7 189.3 457.3 190.7 548.8 185.8C640.3 181 731.7 170 823 172C914.3 174 1005.7 189 1097 193.2C1188.3 197.3 1279.7 190.7 1371.2 178.3C1462.7 166 1554.3 148 1645.8 150.8C1737.3 153.7 1828.7 177.3 1874.3 189.2L1920 201L1920 0L1874.3 0C1828.7 0 1737.3 0 1645.8 0C1554.3 0 1462.7 0 1371.2 0C1279.7 0 1188.3 0 1097 0C1005.7 0 914.3 0 823 0C731.7 0 640.3 0 548.8 0C457.3 0 365.7 0 274.2 0C182.7 0 91.3 0 45.7 0L0 0Z" fill="#141414"></path><path d="M0 84L45.7 80C91.3 76 182.7 68 274.2 62.8C365.7 57.7 457.3 55.3 548.8 58.3C640.3 61.3 731.7 69.7 823 82C914.3 94.3 1005.7 110.7 1097 108C1188.3 105.3 1279.7 83.7 1371.2 83.3C1462.7 83 1554.3 104 1645.8 103.8C1737.3 103.7 1828.7 82.3 1874.3 71.7L1920 61L1920 0L1874.3 0C1828.7 0 1737.3 0 1645.8 0C1554.3 0 1462.7 0 1371.2 0C1279.7 0 1188.3 0 1097 0C1005.7 0 914.3 0 823 0C731.7 0 640.3 0 548.8 0C457.3 0 365.7 0 274.2 0C182.7 0 91.3 0 45.7 0L0 0Z" fill="#121212"></path></svg>